<svg xmlns="http://www.w3.org/2000/svg" xmlns:xlink="http://www.w3.org/1999/xlink" viewBox="0 0 595 230.47"><defs><style>.cls-1{fill:none;}.cls-2{fill:#ffe4b3;}.cls-3{clip-path:url(#clip-path);}.cls-4{fill:#f8d048;}.cls-5{clip-path:url(#clip-path-2);}.cls-6{fill:#353535;}</style><clipPath id="clip-path" transform="translate(-3 -5)"><polygon class="cls-1" points="0 47.64 56.51 0 333.51 23.27 23.27 230.47 0 47.64"/></clipPath><clipPath id="clip-path-2" transform="translate(-3 -5)"><polygon class="cls-1" points="271.19 15.53 603 5 576.62 184.15 271.19 15.53"/></clipPath></defs><title>アセット 7</title><g id="レイヤー_2" data-name="レイヤー 2"><g id="レイヤー_1-2" data-name="レイヤー 1"><polygon class="cls-2" points="0 47.64 56.51 0 333.51 23.27 23.27 230.47 0 47.64"/><g class="cls-3"><path d="M79.6,20.28v131h35.07v46.52H40.44V20.28Z" transform="translate(-3 -5)"/><path d="M151.9,20.28v131H117.84v-131Z" transform="translate(-3 -5)"/><path d="M222.8,20.28l-13,98.11H171.06L156.32,20.28h26.91q4.68,40.55,6.69,68.6,2-28.36,4.2-50.35l1.77-18.25Z" transform="translate(-3 -5)"/><path d="M227.93,20.28h28.92V33.64H245.27V46.29h10.84V59H245.27V73.65H258V87H227.93Z" transform="translate(-3 -5)"/></g><polygon class="cls-4" points="265.19 17.53 595 39.89 570.62 186.15 265.19 17.53"/><g class="cls-5"><path class="cls-6" d="M351,20.28h12.28q12.28,0,16.63.95A11.42,11.42,0,0,1,387,26.07q2.74,3.9,2.74,12.43,0,7.78-1.93,10.46t-7.62,3.22q5.14,1.27,6.92,3.42a10.19,10.19,0,0,1,2.2,3.93q.44,1.8.43,9.87V87H373.58V64.83q0-5.37-.84-6.64c-.56-.85-2-1.28-4.43-1.28V87H351ZM368.31,31.7V46.53a7.69,7.69,0,0,0,4.1-.8q1.17-.81,1.17-5.21V36.85c0-2.12-.37-3.5-1.13-4.16S370.32,31.7,368.31,31.7Z" transform="translate(-3 -5)"/><path class="cls-6" d="M399.5,20.28h34.26V36.09H420.05v15h12.83v15H420.05V83.47h15.07V99.28H399.5Z" transform="translate(-3 -5)"/><path class="cls-6" d="M442.21,20.28H467.9q10.43,0,16,1.64a17.89,17.89,0,0,1,8.42,4.73,16.23,16.23,0,0,1,3.82,7.48,66.83,66.83,0,0,1,1,13.61v8.54q0,9.39-1.94,13.7a13.21,13.21,0,0,1-7.12,6.6q-5.17,2.31-13.54,2.31h-6.85V118.4H442.21Zm25.51,16.79V62c.73,0,1.35.06,1.88.06q3.51,0,4.88-1.73t1.36-7.18V45.13q0-5-1.58-6.54T467.72,37.07Z" transform="translate(-3 -5)"/><path class="cls-6" d="M578,97.53q0,19.71-.93,27.91a31.23,31.23,0,0,1-19,25.4,48.07,48.07,0,0,1-19.38,3.63A49.22,49.22,0,0,1,519.81,151a31.41,31.41,0,0,1-19.5-25.24q-1-8.07-1-28.27V75.16q0-19.71.93-27.9a31.23,31.23,0,0,1,19-25.4,48.07,48.07,0,0,1,19.38-3.64,49.25,49.25,0,0,1,18.86,3.44A31.43,31.43,0,0,1,577,46.89q1,8.09,1,28.27Zm-34-43q0-9.14-1-11.67a4,4,0,0,0-4.16-2.55,4.65,4.65,0,0,0-4.08,2.06q-1.41,2.07-1.41,12.16v61.05q0,11.4.93,14.06t4.32,2.66a4.18,4.18,0,0,0,4.44-3.07q1-3.06,1-14.62Z" transform="translate(-3 -5)"/></g><path d="M438.6,92.67a23.54,23.54,0,0,0-23.29,6.73,72,72,0,0,0-84.47-8.14,12.26,12.26,0,0,0-22.9,4.12.34.34,0,0,1,0,.1,25.75,25.75,0,0,0-5.22,2.62c-4.16,2.71-6.66,4-9.45,8.87s-8.26,19.44,4.46,28.81c10.82,10.37,27.56,8.63,27.56,8.63s-2.8,23.6-21.09,24c-13.1.28-9.19,21.38-9.18,21.39,3.11,10.53,9,15.22,20.68,21.72a131.64,131.64,0,0,0,41.45,13.27A72.18,72.18,0,0,0,438,138.27a23.52,23.52,0,0,0,.58-45.6Zm-95.65,18c-4.14,1.95-3.78-2.25-5.72-6.39s-5.46-6.65-1.33-8.6,6.24,1.25,8.19,5.39S347.09,108.68,343,110.62Z" transform="translate(-3 -5)"/><path d="M261,191.19a36.84,36.84,0,0,1-7.27-6.46l8.12-6.53-4.53-7-9.21,4.71A36.76,36.76,0,0,1,244.94,164l10.95,0,.83-8.29-11.25-2.3a36.91,36.91,0,0,1,4.31-11.54l9.85,7.06,5.51-6.24-8.56-9.29a36.6,36.6,0,0,1,8.11-5.75l-4.68-9a47,47,0,0,0-10.33,7.31l-12.2-13.24-11,12.48,15.05,10.78a46.71,46.71,0,0,0-6,15.43l-18.79-3.85-1.66,16.57,19.68,0A47.34,47.34,0,0,0,239,180.56L221,189.81l9.06,14,15.76-12.67a47.05,47.05,0,0,0,9.49,8.51Z" transform="translate(-3 -5)"/></g></g></svg>